<svg width="136" height="31" viewBox="0 0 136 31" fill="none" xmlns="http://www.w3.org/2000/svg">
<path d="M125.609 31C124.55 31 123.479 30.904 122.399 30.7121C121.34 30.5201 120.424 30.2642 119.652 29.9443V26.0415C121.395 26.7665 123.38 27.1291 125.609 27.1291C127.219 27.1291 128.377 26.8092 129.083 26.1694C129.812 25.5296 130.176 24.5911 130.176 23.3542V22.4265C129.536 22.9596 128.741 23.3755 127.793 23.6742C126.866 23.9725 125.873 24.122 124.814 24.122C123.138 24.122 121.659 23.7805 120.38 23.0983C119.1 22.4157 118.096 21.456 117.368 20.2192C116.662 18.982 116.309 17.5639 116.309 15.9644C116.309 14.3433 116.662 12.9145 117.368 11.6777C118.074 10.4405 119.067 9.49151 120.347 8.83049C121.626 8.14791 123.094 7.80679 124.748 7.80679C127.021 7.80679 128.896 8.4786 130.374 9.8222V8.28665H136V22.5865C136 25.2521 135.151 27.3211 133.452 28.7926C131.775 30.2642 129.161 31 125.609 31ZM126.271 19.7713C127.175 19.7713 127.98 19.5474 128.686 19.0995C129.392 18.6516 129.889 18.0542 130.176 17.308V14.6208C129.867 13.8742 129.359 13.2876 128.653 12.8613C127.947 12.4134 127.153 12.1895 126.271 12.1895C125.079 12.1895 124.119 12.5306 123.391 13.2132C122.663 13.8742 122.299 14.7808 122.299 15.9324C122.299 17.1053 122.663 18.0438 123.391 18.7476C124.119 19.4298 125.079 19.7713 126.271 19.7713Z" fill="black"/>
<path d="M110.888 6.23997C110.006 6.23997 109.267 5.96284 108.671 5.40822C108.075 4.85395 107.777 4.15015 107.777 3.29683C107.777 2.46508 108.075 1.77206 108.671 1.21744C109.267 0.641607 110.006 0.353692 110.888 0.353692C111.749 0.353692 112.477 0.641607 113.072 1.21744C113.69 1.77206 113.999 2.46508 113.999 3.29683C113.999 4.12859 113.69 4.83238 113.072 5.40822C112.477 5.96284 111.749 6.23997 110.888 6.23997ZM107.976 8.28737H113.8V23.6429H107.976V8.28737Z" fill="black"/>
<path d="M99.0015 0H104.826V23.6411H99.0015V0Z" fill="black"/>
<path d="M85.3801 8.28629H91.006V10.2057C91.624 9.52315 92.4952 9.00051 93.6204 8.63819C94.7456 8.2543 95.9923 8.06236 97.3599 8.06236V12.3811C95.9038 12.3811 94.6132 12.5835 93.488 12.9889C92.3851 13.394 91.624 14.0018 91.2046 14.8124V23.6418H85.3801V8.28629Z" fill="black"/>
<path d="M74.8856 24.122C71.7748 24.122 69.3259 23.4182 67.5388 22.0106C65.7737 20.603 64.8913 18.6088 64.8913 16.0284C64.8913 13.4903 65.6744 11.4857 67.241 10.0141C68.8294 8.54258 71.1129 7.80679 74.0913 7.80679C75.9884 7.80679 77.61 8.15869 78.956 8.86249C80.3237 9.54471 81.3496 10.494 82.0337 11.7096C82.7395 12.9037 83.0927 14.2581 83.0927 15.7725V17.8519H70.4179C70.6384 18.7048 71.1899 19.3234 72.0726 19.7073C72.955 20.0912 74.1575 20.2831 75.6798 20.2831C76.7165 20.2831 77.7755 20.1976 78.8568 20.0272C79.9596 19.8565 80.9086 19.6218 81.7028 19.3234V23.0343C80.8862 23.3542 79.8604 23.6102 78.6251 23.8021C77.4114 24.0153 76.165 24.122 74.8856 24.122ZM77.5992 14.3329C77.5107 13.5011 77.1578 12.8505 76.5402 12.3815C75.9222 11.912 75.073 11.6777 73.992 11.6777C72.933 11.6777 72.0945 11.9228 71.4769 12.4134C70.8589 12.8825 70.5061 13.5223 70.4179 14.3329H77.5992Z" fill="black"/>
<path d="M51.3395 24.1209C49.6848 24.1209 48.2176 23.7902 46.9381 23.1292C45.6586 22.4466 44.6658 21.4977 43.9597 20.2821C43.2535 19.0452 42.9007 17.6161 42.9007 15.9953C42.9007 14.3958 43.2535 12.9774 43.9597 11.7406C44.6658 10.4821 45.6474 9.512 46.905 8.82941C48.1845 8.14683 49.6629 7.80572 51.3395 7.80572C52.4427 7.80572 53.4575 7.95489 54.3841 8.25359C55.3107 8.55229 56.105 8.97859 56.7668 9.53321V0H62.5913V23.6411H56.9654V22.1055C55.4873 23.4491 53.6118 24.1209 51.3395 24.1209ZM52.8618 19.7702C53.7442 19.7702 54.5384 19.5571 55.2445 19.1304C55.9506 18.6825 56.4578 18.0855 56.7668 17.3389V14.6197C56.4578 13.8732 55.9506 13.2869 55.2445 12.8602C54.5384 12.4124 53.7442 12.1884 52.8618 12.1884C51.6704 12.1884 50.7107 12.5295 49.9827 13.2121C49.2546 13.8947 48.8906 14.8224 48.8906 15.9953C48.8906 17.1682 49.2546 18.0959 49.9827 18.7785C50.7107 19.4395 51.6704 19.7702 52.8618 19.7702Z" fill="black"/>
<path d="M33.0684 24.122C29.9577 24.122 27.5087 23.4182 25.7217 22.0106C23.9566 20.603 23.0742 18.6088 23.0742 16.0284C23.0742 13.4903 23.8573 11.4857 25.4238 10.0141C27.0123 8.54258 29.2958 7.80679 32.2742 7.80679C34.1713 7.80679 35.7929 8.15869 37.1389 8.86249C38.5066 9.54471 39.5325 10.494 40.2166 11.7096C40.9224 12.9037 41.2756 14.2581 41.2756 15.7725V17.8519H28.6008C28.8213 18.7048 29.3728 19.3234 30.2555 19.7073C31.1379 20.0912 32.3404 20.2831 33.8627 20.2831C34.8994 20.2831 35.9584 20.1976 37.0397 20.0272C38.1425 19.8565 39.0915 19.6218 39.8857 19.3234V23.0343C39.0691 23.3542 38.0432 23.6102 36.808 23.8021C35.5943 24.0153 34.3479 24.122 33.0684 24.122ZM35.7821 14.3329C35.6936 13.5011 35.3407 12.8505 34.7231 12.3815C34.1051 11.912 33.2558 11.6777 32.1749 11.6777C31.1159 11.6777 30.2774 11.9228 29.6598 12.4134C29.0418 12.8825 28.6889 13.5223 28.6008 14.3329H35.7821Z" fill="black"/>
<path d="M0 0H5.85754V9.91818H14.9252V0H20.7827V23.6422H14.9252V14.6208H5.85754V23.6422H0V0Z" fill="black"/>
</svg>
