<?xml version="1.0" encoding="UTF-8"?>
<svg xmlns="http://www.w3.org/2000/svg" width="18" height="10" viewBox="0 0 18 10" fill="none"><path d="M9.55902 10C3.75077 10 0.437843 6.24625 0.299805 0H3.20924C3.3048 4.58458 5.44971 6.52653 7.14865 6.92693V0H9.88819V3.95395C11.5659 3.78378 13.3285 1.98198 13.9232 0H16.6627C16.4386 1.02791 15.992 2.00118 15.3507 2.85893C14.7094 3.71668 13.8872 4.44045 12.9357 4.98498C13.9978 5.48254 14.936 6.18679 15.6883 7.05125C16.4406 7.91571 16.9898 8.92073 17.2998 10H14.2842C14.0059 9.06258 13.4403 8.22343 12.6583 7.58773C11.8763 6.95203 10.9127 6.54805 9.88819 6.42643V10H9.55902Z" fill="#EC6941"/><script xmlns=""/></svg>